<svg width="40" height="38" viewBox="0 0 40 38" fill="none" xmlns="http://www.w3.org/2000/svg">
<path d="M31.6665 17.4167H11.8998L17.9498 10.5133C18.2327 10.19 18.3688 9.77313 18.3282 9.35446C18.2876 8.93578 18.0735 8.54959 17.7332 8.28084C17.3928 8.01208 16.954 7.88279 16.5133 7.92139C16.0726 7.95999 15.6661 8.16333 15.3832 8.48667L7.04984 17.9867C6.99377 18.0622 6.94364 18.1416 6.89984 18.2242C6.89984 18.3033 6.89984 18.3508 6.78317 18.43C6.70763 18.6115 6.66807 18.8048 6.6665 19C6.66807 19.1952 6.70763 19.3885 6.78317 19.57C6.78317 19.6492 6.78317 19.6967 6.89984 19.7758C6.94364 19.8584 6.99377 19.9378 7.04984 20.0133L15.3832 29.5133C15.5399 29.6921 15.7361 29.8358 15.9579 29.9343C16.1797 30.0328 16.4217 30.0837 16.6665 30.0833C17.0559 30.0841 17.4333 29.9552 17.7332 29.7192C17.9019 29.5863 18.0414 29.423 18.1437 29.2388C18.2459 29.0546 18.3089 28.853 18.3291 28.6456C18.3492 28.4382 18.3261 28.2291 18.261 28.0303C18.1959 27.8314 18.0902 27.6467 17.9498 27.4867L11.8998 20.5833H31.6665C32.1085 20.5833 32.5325 20.4165 32.845 20.1196C33.1576 19.8227 33.3332 19.4199 33.3332 19C33.3332 18.5801 33.1576 18.1774 32.845 17.8804C32.5325 17.5835 32.1085 17.4167 31.6665 17.4167Z" fill="#3B5BDB"/>
</svg>
