<svg width="28" height="24" viewBox="0 0 28 24" fill="none" xmlns="http://www.w3.org/2000/svg">
<path d="M25.6665 10.4167H5.89984L11.9498 3.51334C12.2327 3.18999 12.3688 2.77313 12.3282 2.35446C12.2876 1.93578 12.0735 1.54959 11.7332 1.28084C11.3928 1.01208 10.954 0.882787 10.5133 0.921388C10.0726 0.959989 9.66607 1.16333 9.38317 1.48667L1.04984 10.9867C0.993772 11.0622 0.943636 11.1416 0.899837 11.2242C0.899837 11.3033 0.899838 11.3508 0.783171 11.43C0.707627 11.6115 0.668072 11.8048 0.666504 12C0.668072 12.1952 0.707627 12.3885 0.783171 12.57C0.783171 12.6492 0.78317 12.6967 0.899837 12.7758C0.943636 12.8584 0.993772 12.9378 1.04984 13.0133L9.38317 22.5133C9.53987 22.6921 9.73611 22.8358 9.95791 22.9343C10.1797 23.0328 10.4217 23.0837 10.6665 23.0833C11.0559 23.0841 11.4333 22.9552 11.7332 22.7192C11.9019 22.5863 12.0414 22.423 12.1437 22.2388C12.2459 22.0546 12.3089 21.853 12.3291 21.6456C12.3492 21.4382 12.3261 21.2291 12.261 21.0303C12.1959 20.8314 12.0902 20.6467 11.9498 20.4867L5.89984 13.5833H25.6665C26.1085 13.5833 26.5325 13.4165 26.845 13.1196C27.1576 12.8227 27.3332 12.4199 27.3332 12C27.3332 11.5801 27.1576 11.1774 26.845 10.8804C26.5325 10.5835 26.1085 10.4167 25.6665 10.4167Z" fill="#3B5BDB"/>
</svg>
